<?xml version="1.0" encoding="UTF-8"?>
<svg xmlns="http://www.w3.org/2000/svg" xmlns:xlink="http://www.w3.org/1999/xlink" width="612" height="792" viewBox="0 0 612 792">
<path fill-rule="nonzero" fill="rgb(0%, 0%, 0%)" fill-opacity="1" d="M 484.75 481 L 340.75 481 L 340.75 427.75 C 393.5 387.25 420.75 337 420.75 277 C 420.75 239.5 410 210 389 188.25 C 367.75 166.5 340.25 156 306.75 156 C 273 156 245.25 166.5 223.75 188.5 C 202 210.25 191.25 240.25 191.25 278 C 191.25 337.5 218.5 387.5 271.25 427.75 L 271.25 481 L 127.25 481 L 127.25 427.75 L 216.25 427.75 C 157 389 127.25 336.75 127.25 271 C 127.25 218.5 143.5 177.5 176.25 147.5 C 209 117.25 252 102.25 305.25 102.25 C 359.75 102.25 403.25 117.25 435.75 147 C 468.5 176.75 484.75 218.5 484.75 270.5 C 484.75 336.25 454.75 388.75 394.75 427.75 L 484.75 427.75 Z M 484.75 481 "/>
</svg>
